<?xml version="1.0" standalone="no"?>
<!DOCTYPE svg PUBLIC "-//W3C//DTD SVG 20010904//EN"
 "http://www.w3.org/TR/2001/REC-SVG-20010904/DTD/svg10.dtd">
<svg version="1.0" xmlns="http://www.w3.org/2000/svg"
 width="500.000000pt" height="500.000000pt" viewBox="0 0 500.000000 500.000000"
 preserveAspectRatio="xMidYMid meet">
<metadata>
Created by potrace 1.16, written by Peter Selinger 2001-2019
</metadata>
<g transform="translate(0.000000,500.000000) scale(0.100000,-0.100000)"
fill="#000000" stroke="none">
<path d="M2608 3211 c10 -6 9 -10 -7 -14 -13 -3 -19 -1 -14 5 3 7 1 8 -5 4 -8
-4 -10 -29 -7 -69 3 -47 2 -54 -4 -27 -8 35 -8 35 -10 -12 0 -27 -6 -48 -12
-48 -5 0 -7 -5 -3 -11 4 -8 -1 -9 -16 -4 -17 5 -21 4 -15 -6 6 -9 3 -11 -8 -6
-18 7 -69 -11 -63 -22 2 -3 -7 -6 -21 -6 -19 0 -38 14 -66 48 -22 26 -46 47
-52 47 -21 0 -185 -162 -185 -182 0 -12 4 -16 12 -12 8 5 9 2 5 -9 -4 -11 7
-27 35 -52 23 -19 42 -44 43 -55 1 -10 -3 -16 -8 -13 -6 4 -8 -1 -4 -11 4 -9
3 -15 -2 -12 -12 8 -35 -50 -25 -65 5 -8 3 -9 -5 -4 -9 5 -12 0 -9 -16 3 -24
2 -24 -70 -21 -47 1 -71 -1 -67 -8 5 -8 -5 -13 -25 -12 -3 0 -5 -54 -5 -120 0
-146 4 -151 107 -146 59 3 67 1 63 -13 -7 -22 5 -50 18 -42 6 4 8 0 4 -10 -3
-10 -2 -17 4 -17 6 0 7 -5 3 -12 -4 -6 0 -16 8 -22 25 -18 24 -20 -13 -56 -19
-19 -26 -28 -14 -20 12 8 4 -1 -17 -21 -21 -20 -38 -41 -38 -47 0 -5 35 -45
78 -88 l78 -79 -76 70 -75 70 75 -77 c75 -78 111 -96 124 -62 3 8 11 12 17 8
7 -4 9 -3 6 3 -4 6 3 19 16 29 21 19 21 19 8 -1 -7 -11 -1 -7 14 10 27 28 62
45 48 22 -4 -7 0 -8 11 -4 9 4 15 3 12 -2 -8 -12 41 -32 61 -24 12 5 14 3 8
-7 -6 -10 -2 -11 16 -7 23 6 24 4 22 -46 -1 -48 -1 -49 7 -17 7 28 8 23 5 -27
-3 -34 0 -65 5 -68 14 -9 246 -9 259 0 8 4 10 28 7 68 -4 46 -3 54 4 32 8 -27
9 -25 7 17 -2 40 1 47 14 43 22 -7 50 5 43 17 -4 6 1 8 13 4 10 -3 28 0 39 8
19 15 19 15 -1 31 -11 9 -13 14 -5 10 8 -4 -1 8 -20 25 -19 17 -28 28 -20 25
8 -4 -1 7 -20 25 -19 18 -26 26 -15 19 18 -13 19 -12 7 2 -11 14 -19 15 -48 6
-24 -7 -31 -13 -22 -19 8 -5 -3 -6 -27 -3 -22 4 -35 3 -28 -2 6 -4 -19 -8 -57
-8 -39 0 -63 4 -57 8 7 5 -2 6 -21 3 -18 -3 -31 -2 -28 3 7 11 -41 24 -56 15
-6 -4 -8 -3 -4 4 6 9 -23 26 -49 27 -5 0 -40 31 -77 68 -63 63 -83 87 -58 72
6 -4 5 4 -1 19 -7 14 -16 23 -22 19 -6 -3 -7 -1 -3 5 9 14 -4 63 -14 57 -5 -3
-7 12 -4 32 3 28 2 33 -5 18 -6 -14 -9 2 -9 55 0 53 3 69 9 55 7 -15 8 -10 5
18 -3 24 -1 35 6 31 6 -4 8 1 3 16 -5 16 -4 20 5 15 9 -5 10 -2 5 14 -5 15 1
28 22 48 15 14 21 22 13 18 -8 -5 6 11 31 36 25 25 30 31 10 14 -30 -25 -29
-22 9 18 45 48 56 57 45 35 -4 -7 3 -2 15 12 12 14 19 19 15 12 -4 -8 5 -7 29
4 19 10 33 22 29 27 -3 5 4 6 17 2 16 -5 20 -4 15 4 -5 8 2 10 22 6 16 -4 23
-3 16 2 -6 4 32 8 87 8 55 0 93 -4 87 -8 -7 -5 -1 -7 15 -4 16 2 25 0 21 -6
-3 -5 3 -6 17 -2 15 5 20 4 16 -4 -4 -6 0 -11 10 -11 10 0 15 3 11 6 -3 4 4
15 16 26 12 11 15 17 7 13 -8 -4 -1 6 15 22 17 15 26 26 20 23 -6 -3 1 5 15
18 l25 23 -24 19 c-13 11 -28 20 -35 20 -6 0 -4 -5 4 -11 12 -9 12 -10 -3 -5
-10 3 -21 6 -23 6 -3 0 -2 5 2 11 4 8 -1 9 -16 4 -17 -5 -21 -4 -15 6 6 8 4
11 -6 7 -11 -4 -14 4 -12 36 2 39 1 39 -7 11 -7 -23 -8 -15 -5 33 4 46 2 61
-7 56 -7 -5 -9 -2 -5 8 4 12 0 15 -16 11 -18 -4 -19 -3 -7 6 11 8 -16 11 -100
11 -67 0 -109 -4 -102 -9z"/>
</g>
</svg>
