<?xml version="1.0" standalone="no"?>
<!DOCTYPE svg PUBLIC "-//W3C//DTD SVG 20010904//EN"
 "http://www.w3.org/TR/2001/REC-SVG-20010904/DTD/svg10.dtd">
<svg version="1.0" xmlns="http://www.w3.org/2000/svg"
 width="187.000000pt" height="95.000000pt" viewBox="0 0 187.000000 95.000000"
 preserveAspectRatio="xMidYMid meet">

<g transform="translate(0.000000,95.000000) scale(0.100000,-0.100000)"
fill="#000000" stroke="none">
<path d="M470 846 c0 -48 -17 -72 -59 -86 -40 -13 -42 -13 -71 15 l-31 29 -50
-50 -51 -51 29 -34 30 -34 -18 -41 c-17 -38 -23 -42 -64 -49 l-46 -6 3 -67 3
-67 38 -3 c39 -3 60 -24 72 -73 5 -19 0 -34 -21 -58 l-27 -32 44 -45 c24 -24
49 -44 55 -44 7 0 26 11 42 25 29 24 30 24 70 7 36 -15 42 -22 49 -62 l8 -45
65 0 65 0 8 46 c7 37 14 47 38 56 35 13 35 19 5 56 -20 25 -26 27 -50 17 -97
-36 -231 24 -277 124 -45 98 -9 227 78 285 55 37 96 46 174 38 54 -6 59 -5 78
20 27 34 27 39 -8 51 -25 9 -31 17 -36 56 l-7 46 -69 0 c-66 0 -69 -1 -69 -24z"/>
<path d="M750 528 c0 -43 0 -43 -37 -43 -50 0 -58 -29 -17 -62 l29 -23 -33 3
c-30 2 -32 4 -32 43 l0 41 -45 1 c-27 1 -50 -5 -60 -14 -18 -19 -20 -68 -2
-82 6 -5 63 -10 125 -10 108 0 112 1 113 22 0 21 0 21 16 -1 8 -13 24 -23 35
-23 18 0 19 1 2 30 -17 28 -17 30 0 48 14 17 15 20 2 25 -8 3 -20 -1 -26 -9
-22 -26 -30 -15 -30 41 0 48 -2 55 -20 55 -17 0 -20 -7 -20 -42z m0 -79 c0
-15 -4 -15 -25 -6 -32 15 -32 27 0 25 16 -2 25 -8 25 -19z m-123 -5 c3 -8 -2
-23 -11 -32 -15 -15 -17 -15 -32 0 -21 21 -11 48 16 48 11 0 23 -7 27 -16z"/>
<path d="M420 546 c0 -8 10 -16 23 -18 20 -3 22 -9 25 -75 2 -56 6 -73 17 -73
12 0 15 16 15 75 0 73 1 75 25 75 16 0 25 6 25 15 0 12 -14 15 -65 15 -50 0
-65 -3 -65 -14z"/>
<path d="M870 472 c0 -75 3 -92 15 -92 11 0 15 11 15 38 l1 37 29 -35 c33 -39
29 -40 75 25 13 19 14 17 14 -22 1 -31 5 -43 16 -43 10 0 15 10 15 28 l0 27
13 -25 c11 -21 20 -25 65 -27 l52 -1 0 53 0 52 -43 1 c-47 1 -58 -4 -76 -33
-10 -17 -11 -10 -9 43 2 34 1 62 -2 62 -3 0 -23 -27 -45 -60 -22 -33 -42 -59
-45 -59 -3 0 -24 27 -47 61 l-43 62 0 -92z m277 -28 c3 -8 -1 -22 -9 -30 -13
-14 -17 -14 -31 1 -9 8 -14 22 -11 30 8 20 43 19 51 -1z"/>
<path d="M1190 433 c0 -46 3 -53 19 -53 16 0 20 8 23 37 2 27 8 39 21 41 14 3
17 -4 17 -37 0 -30 4 -41 15 -41 8 0 15 7 15 16 0 14 2 14 15 0 17 -17 115
-20 115 -4 0 6 6 5 15 -2 8 -7 28 -10 45 -8 19 3 30 0 30 -8 0 -17 -28 -26
-50 -14 -13 7 -21 7 -26 -1 -10 -17 12 -32 47 -32 37 0 73 36 65 66 -4 17 -3
18 13 3 21 -19 85 -22 79 -4 -3 7 -15 15 -28 18 -21 5 -20 7 13 17 37 11 37
11 37 -18 0 -22 5 -29 20 -29 16 0 20 7 20 30 0 19 7 34 20 42 11 7 20 18 20
25 0 16 -16 17 -25 3 -5 -8 -11 -7 -21 1 -11 9 -17 9 -28 0 -10 -8 -16 -9 -21
-1 -9 15 -61 12 -79 -5 -18 -18 -27 -19 -23 -3 4 19 -88 21 -107 2 -13 -12
-16 -13 -16 -1 0 19 -89 20 -111 1 -15 -13 -17 -13 -22 0 -4 11 -20 15 -56 14
l-51 -1 0 -54z m438 16 c-7 -5 -19 -9 -27 -9 -11 0 -11 3 -1 14 6 8 18 12 27
9 12 -5 12 -7 1 -14z m-238 -13 c0 -28 -24 -41 -40 -21 -16 20 -5 45 20 45 14
0 20 -7 20 -24z m128 -2 c4 -27 -26 -40 -46 -20 -21 20 -8 48 20 44 14 -2 24
-11 26 -24z"/>
</g>
</svg>
